PathFileType	4	(X/Y/Z)	/Users/itak/Documents/Research/Walk-IL/dataset/trc/00281_00010.trc
DataRate	CameraRate	NumFrames	NumMarkers	Units	OrigDataRate	OrigDataStartFrame	OrigNumFrames
100.000000	100.000000	4	54	mm	100.000000	230	614
Frame#	Time	RPSI			LPSI			L3			STRN			T10			C7			CLAV			RBAK			LBAK			LSHO			LUPA			LAEL			LAOL			LWTS			LWPS			LFRA			LIFD			LHPS			LHTS			RSHO			RUPA			RAEL			RAOL			RWTS			RWPS			RFRA			RIFD			RHTS			RHPS			RBHD			LFHD			RFHD			LBHD			LHIP			RASI			LASI			LKNE			LTHI			LANK			LTIP			LTOE			LMT1			LMT5			LHEE			RKNE			RTHI			RANK			RTIP			RTOE			RMT1			RMT5			RHEE			RHIP			*53			
		X1	Y1	Z1	X2	Y2	Z2	X3	Y3	Z3	X4	Y4	Z4	X5	Y5	Z5	X6	Y6	Z6	X7	Y7	Z7	X8	Y8	Z8	X9	Y9	Z9	X10	Y10	Z10	X11	Y11	Z11	X12	Y12	Z12	X13	Y13	Z13	X14	Y14	Z14	X15	Y15	Z15	X16	Y16	Z16	X17	Y17	Z17	X18	Y18	Z18	X19	Y19	Z19	X20	Y20	Z20	X21	Y21	Z21	X22	Y22	Z22	X23	Y23	Z23	X24	Y24	Z24	X25	Y25	Z25	X26	Y26	Z26	X27	Y27	Z27	X28	Y28	Z28	X29	Y29	Z29	X30	Y30	Z30	X31	Y31	Z31	X32	Y32	Z32	X33	Y33	Z33	X34	Y34	Z34	X35	Y35	Z35	X36	Y36	Z36	X37	Y37	Z37	X38	Y38	Z38	X39	Y39	Z39	X40	Y40	Z40	X41	Y41	Z41	X42	Y42	Z42	X43	Y43	Z43	X44	Y44	Z44	X45	Y45	Z45	X46	Y46	Z46	X47	Y47	Z47	X48	Y48	Z48	X49	Y49	Z49	X50	Y50	Z50	X51	Y51	Z51	X52	Y52	Z52	X53	Y53	Z53	X54	Y54	Z54	

231	2.3	892.04443359375	958.1617431640625	-340.3384399414062	774.7930908203125	949.6359252929688	-209.1698913574219	814.2203979492188	1025.552856445312	-261.223876953125	633.1591186523438	1207.5244140625	-425.2187805175781	815.5725708007812	1141.564819335938	-233.7765960693359	762.8486938476562	1385.112426757812	-245.7349243164062	672.2616577148438	1304.301635742188	-370.9955139160156	857.40478515625	1251.826538085938	-259.8053894042969	698.2344360351562	1343.900146484375	-164.4159393310547	603.5986938476562	1347.485107421875	-199.5082855224609	553.9343872070312	1234.958740234375	-137.6227416992188	488.8610229492188	1050.934814453125	-147.6523590087891	563.9345092773438	1007.100402832031	-135.2718963623047	386.7597045898438	907.1365966796875	-294.9971313476562	351.4371948242188	883.4534912109375	-234.8198852539062	432.5451354980469	971.0768432617188	-175.0525970458984	288.9289855957031	771.2855834960938	-376.8169860839844	307.4401550292969	818.1248168945312	-277.1083374023438	310.60302734375	852.1962890625	-333.800537109375	843.42626953125	1373.46630859375	-398.505615234375	906.8829345703125	1327.75537109375	-432.0648803710938	1003.767944335938	1081.310913085938	-394.5078735351562	942.4578857421875	1077.9853515625	-321.8927612304688	962.207763671875	831.63916015625	-393.0436401367188	1046.0830078125	847.6498413085938	-400.1747436523438	1017.800659179688	1011.698974609375	-406.0925598144531	1008.324829101562	650.5797119140625	-375.6980590820312	998.49609375	719.6275634765625	-407.18896484375	1044.654052734375	737.5164184570312	-395.0603332519531	773.2818603515625	1555.551879882812	-341.7413330078125	559.2722778320312	1552.828369140625	-341.9532470703125	614.0646362304688	1559.484497070312	-417.2137451171875	691.597900390625	1535.434448242188	-221.9394226074219	661.3496704101562	898.0531005859375	-183.3364715576172	745.5906372070312	928.6201171875	-503.0833129882812	584.5458374023438	905.5319213867188	-308.3601684570312	730.5481567382812	446.2198486328125	-237.7917938232422	680.1381225585938	582.3914184570312	-221.503173828125	896.5903930664062	45.92849731445312	-147.9261322021484	810.237060546875	232.5378875732422	-190.4583740234375	876.0928955078125	27.40570259094238	-365.0207824707031	937.2535400390625	21.10555648803711	-309.431884765625	838.5867309570312	36.93071365356445	-260.5776977539062	967.5719604492188	37.69814300537109	-127.576774597168	741.6075439453125	485.5258483886719	-611.2850341796875	814.215576171875	732.0926513671875	-568.525390625	638.5263061523438	49.95183944702148	-730.7344970703125	693.0797729492188	381.0787048339844	-648.6183471679688	453.2705688476562	126.9193954467773	-716.155517578125	492.8080749511719	96.37697601318359	-667.9925537109375	544.1393432617188	80.29911041259766	-772.3292236328125	674.3864135742188	39.96722030639648	-669.0514526367188	882.638671875	921.1817626953125	-487.2559509277344	nan	nan	nan	
232	2.31	886.5791015625	955.5768432617188	-348.9103393554688	769.7833862304688	947.4913330078125	-217.1743927001953	808.9881591796875	1023.1376953125	-269.6995544433594	626.9376831054688	1204.865356445312	-432.3059387207031	810.8443603515625	1139.154541015625	-242.4105529785156	758.2174682617188	1382.794799804688	-254.2009887695312	666.29833984375	1301.85107421875	-378.6272583007812	852.625732421875	1249.361572265625	-269.1221008300781	694.3306884765625	1341.624877929688	-172.2469329833984	599.4505615234375	1345.177490234375	-206.2633056640625	550.591796875	1232.609619140625	-143.6128845214844	485.3695678710938	1048.763305664062	-152.6047210693359	560.4215087890625	1004.75634765625	-141.1087493896484	381.2823181152344	905.5685424804688	-298.8028259277344	346.4181823730469	881.929443359375	-238.3538665771484	428.5031127929688	969.1243896484375	-179.3914489746094	281.7270202636719	770.3909912109375	-379.8746032714844	301.4861450195312	816.9779052734375	-280.191162109375	304.2759399414062	851.1251831054688	-336.9000549316406	837.3218994140625	1370.925659179688	-407.7509460449219	900.362548828125	1324.845825195312	-442.0591430664062	996.97314453125	1077.794311523438	-406.9281616210938	936.8624877929688	1074.345703125	-333.1947021484375	955.4795532226562	828.58203125	-406.5607604980469	1039.259765625	844.549560546875	-414.2374572753906	1010.830322265625	1008.407409667969	-418.9665832519531	1001.53466796875	647.7068481445312	-390.7606506347656	991.3441162109375	716.7362670898438	-422.2296752929688	1036.868774414062	734.7832641601562	-410.4563903808594	767.8766479492188	1553.323974609375	-350.0536499023438	554.1648559570312	1550.8046875	-347.6205444335938	607.7830810546875	1557.562622070312	-423.5988464355469	687.581298828125	1533.01611328125	-229.3167114257812	656.4149169921875	896.135498046875	-190.623291015625	739.2208251953125	926.0111083984375	-510.9849548339844	577.70263671875	903.3168334960938	-315.7924499511719	727.4425048828125	444.7828063964844	-242.580810546875	676.3078002929688	580.7960815429688	-227.1756439208984	897.1384887695312	46.39531326293945	-148.4916687011719	809.0961303710938	232.1794586181641	-193.06298828125	875.89111328125	27.33753395080566	-365.0400390625	937.2982177734375	21.20327186584473	-309.7567443847656	838.8367309570312	37.05291366577148	-260.4830017089844	968.2783203125	39.18828201293945	-128.0347442626953	731.0792236328125	484.3912353515625	-619.1421508789062	806.7122802734375	730.0581665039062	-577.1857299804688	626.7439575195312	48.60890579223633	-736.6859741210938	681.5808715820312	379.5291137695312	-655.7916870117188	441.6752319335938	125.2270431518555	-720.6183471679688	481.5155944824219	94.66299438476562	-672.8019409179688	532.2169189453125	78.91477203369141	-777.495361328125	663.1323852539062	39.319580078125	-675.2059326171875	876.38232421875	918.3526611328125	-495.6997680664062	nan	nan	nan	
233	2.32	881.0541381835938	953.1423950195312	-357.2814636230469	764.5897216796875	945.3986206054688	-225.1468811035156	803.5848999023438	1020.765747070312	-278.1277465820312	620.6610107421875	1202.248046875	-439.501953125	805.9205322265625	1136.781616210938	-251.0739288330078	753.50146484375	1380.549926757812	-262.7157897949219	660.2592163085938	1299.4384765625	-386.3646545410156	847.7042846679688	1246.909912109375	-278.4429931640625	690.2861938476562	1339.445434570312	-180.1602783203125	595.115478515625	1342.954833984375	-213.2645111083984	547.0999145507812	1230.324340820312	-149.7828521728516	482.0260925292969	1046.575317382812	-157.6982879638672	557.152587890625	1002.510803222656	-147.1243896484375	376.0797119140625	903.5569458007812	-302.4447021484375	341.782958984375	880.0222778320312	-241.6423645019531	424.7245788574219	967.0236206054688	-183.7322692871094	274.8618469238281	768.7412109375	-382.3210754394531	295.9380798339844	815.3250122070312	-282.8264465332031	298.2643432617188	849.4089965820312	-339.6238098144531	831.1658935546875	1368.380004882812	-417.0115966796875	893.7747192382812	1321.871215820312	-452.0277099609375	989.9576416015625	1074.1533203125	-419.4550170898438	930.9702758789062	1070.5166015625	-344.7549743652344	948.4364624023438	825.3292236328125	-420.3733520507812	1032.203002929688	841.4417114257812	-428.679443359375	1003.637084960938	1005.006713867188	-432.01904296875	994.5208740234375	644.83349609375	-406.1910705566406	983.9685668945312	713.8438110351562	-437.6373291015625	1028.857788085938	732.0430297851562	-426.2242126464844	762.3296508789062	1551.211181640625	-358.3869018554688	549.0265502929688	1548.810791015625	-353.2024536132812	601.34716796875	1555.73779296875	-429.93212890625	683.4853515625	1530.629150390625	-236.7115020751953	651.2920532226562	894.1868896484375	-197.9723815917969	732.7636108398438	923.4654541015625	-518.9286499023438	570.733154296875	901.1111450195312	-323.2847290039062	724.09228515625	443.3223876953125	-247.7018432617188	672.2993774414062	579.1723022460938	-233.1289978027344	897.5421752929688	46.88513946533203	-149.1678314208984	807.8052978515625	231.8692016601562	-195.9077453613281	875.702880859375	27.27248954772949	-365.0731201171875	937.3078002929688	21.29340362548828	-310.0792846679688	839.0552368164062	37.19408798217773	-260.4400024414062	968.8665161132812	40.98162078857422	-128.4727020263672	720.1130981445312	483.5520935058594	-626.8682250976562	798.6438598632812	728.2736206054688	-585.6766967773438	617.346923828125	46.74435424804688	-741.5869750976562	670.0531005859375	377.80712890625	-662.6669921875	431.9545288085938	121.4673843383789	-724.0609741210938	472.2825927734375	91.37508392333984	-676.5263671875	522.4782104492188	76.01441192626953	-781.5204467773438	654.2789916992188	38.13408660888672	-680.3128051757812	870.0208740234375	915.619873046875	-504.0619506835938	nan	nan	nan	
234	2.33	875.4174194335938	950.943359375	-365.4840698242188	759.2013549804688	943.3973999023438	-233.0890197753906	798.0025024414062	1018.468444824219	-286.5118103027344	614.3146362304688	1199.735107421875	-446.80078125	800.7842407226562	1134.483032226562	-259.7640991210938	748.7059936523438	1378.425170898438	-271.2574462890625	654.1441040039062	1297.119140625	-394.1885375976562	842.650390625	1244.513793945312	-287.759033203125	686.1035766601562	1337.399047851562	-188.1355590820312	590.5908203125	1340.867431640625	-220.4677429199219	543.4124145507812	1228.14794921875	-156.1460571289062	478.8275756835938	1044.399780273438	-162.9253692626953	554.1181030273438	1000.397521972656	-153.3258514404297	371.134033203125	901.119873046875	-305.9137268066406	337.5531616210938	877.730224609375	-244.6801605224609	421.2163391113281	964.7908935546875	-188.0676879882812	268.3751525878906	766.3532104492188	-384.1590576171875	290.8800048828125	813.1461791992188	-285.0172119140625	292.5931091308594	847.0521240234375	-341.9526672363281	824.9566650390625	1365.8779296875	-426.2783203125	887.1135864257812	1318.883666992188	-461.9673767089844	982.7137451171875	1070.452270507812	-432.0679016113281	924.763916015625	1066.549560546875	-356.5443725585938	941.0379028320312	821.8864135742188	-434.4161682128906	1024.893188476562	838.3665161132812	-443.4459533691406	996.2201538085938	1001.555847167969	-445.2275390625	987.2612915039062	641.9990234375	-421.9343872070312	976.348388671875	710.9902954101562	-453.3573608398438	1020.598754882812	729.3356323242188	-442.3109436035156	756.64453125	1549.255981445312	-366.7440795898438	543.8264770507812	1546.896728515625	-358.7197265625	594.7679443359375	1554.05322265625	-436.2190856933594	679.3157348632812	1528.332275390625	-244.1289520263672	645.9786376953125	892.2218627929688	-205.3860931396484	726.1788940429688	921.0552978515625	-526.9066772460938	563.9489135742188	898.9180297851562	-330.7129821777344	720.4916381835938	441.8779296875	-253.1110382080078	668.0985107421875	577.56494140625	-239.3068237304688	897.7536010742188	47.45097732543945	-149.9495544433594	806.3270874023438	231.6492614746094	-198.9656982421875	875.5361938476562	27.21005821228027	-365.121337890625	937.2681884765625	21.37822151184082	-310.3831787109375	839.2106323242188	37.35730743408203	-260.4756164550781	969.2811279296875	43.12179946899414	-128.8877258300781	708.8561401367188	483.0054626464844	-634.4191284179688	790.0731811523438	726.7476806640625	-593.9423217773438	610.0648803710938	44.54716873168945	-745.6161499023438	658.604736328125	376.0391540527344	-669.24658203125	423.8880310058594	115.9308471679688	-726.500732421875	464.9128723144531	86.83795928955078	-679.2128295898438	514.5913696289062	71.78497314453125	-784.5032348632812	647.5576782226562	36.59510040283203	-684.5556030273438	863.5131225585938	913.0831298828125	-512.3687744140625	nan	nan	nan	
